<?xml version="1.0" encoding="UTF-8"?>
<!DOCTYPE svg PUBLIC "-//W3C//DTD SVG 1.1//EN" "http://www.w3.org/Graphics/SVG/1.1/DTD/svg11.dtd">
<svg xmlns="http://www.w3.org/2000/svg" version="1.1" width="1665px" height="665px" style="shape-rendering:geometricPrecision; text-rendering:geometricPrecision; image-rendering:optimizeQuality; fill-rule:evenodd; clip-rule:evenodd" xmlns:xlink="http://www.w3.org/1999/xlink">
<g><path style="opacity:1" fill="#3939d5" d="M -0.5,-0.5 C 554.5,-0.5 1109.5,-0.5 1664.5,-0.5C 1664.5,109.833 1664.5,220.167 1664.5,330.5C 1512.49,342.525 1360.49,354.691 1208.5,367C 1203.64,369.26 1199.31,372.26 1195.5,376C 1149.35,415.571 1103.02,454.904 1056.5,494C 704.191,550.718 351.858,607.218 -0.5,663.5C -0.5,442.167 -0.5,220.833 -0.5,-0.5 Z"/></g>
<g><path style="opacity:1" fill="#e5e5f8" d="M 1664.5,330.5 C 1664.5,441.833 1664.5,553.167 1664.5,664.5C 1109.5,664.5 554.5,664.5 -0.5,664.5C -0.5,664.167 -0.5,663.833 -0.5,663.5C 351.858,607.218 704.191,550.718 1056.5,494C 1103.02,454.904 1149.35,415.571 1195.5,376C 1199.31,372.26 1203.64,369.26 1208.5,367C 1360.49,354.691 1512.49,342.525 1664.5,330.5 Z"/></g>
</svg>
