<svg xmlns="http://www.w3.org/2000/svg" version="1.1" xmlns:xlink="http://www.w3.org/1999/xlink" xmlns:svgjs="http://svgjs.dev/svgjs" width="1500" height="1500" viewBox="0 0 1500 1500"><rect width="1500" height="1500" fill="#ffffff"></rect><g transform="matrix(0.6666666666666666,0,0,0.6666666666666666,249.39393939393938,438.58569500674776)"><svg viewBox="0 0 396 247" data-background-color="#3939d6" preserveAspectRatio="xMidYMid meet" height="935" width="1500" xmlns="http://www.w3.org/2000/svg" xmlns:xlink="http://www.w3.org/1999/xlink"><g id="tight-bounds" transform="matrix(1,0,0,1,0.2400000000000091,-0.09999999999999432)"><svg viewBox="0 0 395.52 247.2" height="247.2" width="395.52"><g><svg></svg></g><g><svg viewBox="0 0 395.52 247.2" height="247.2" width="395.52"><mask id="a876c5c5-2a24-4346-b67e-1eea05ba3551"><rect width="395.52" height="247.2" fill="white"></rect><g transform="matrix(1,0,0,1,0,91.30049190121201)" id="clone"><svg viewBox="0 0 395.52 64.59901619757598" height="64.59901619757598" width="395.52"><g><svg viewBox="0 0 395.52 64.59901619757598" height="64.59901619757598" width="395.52"><g><svg viewBox="0 0 395.52 64.59901619757598" height="64.59901619757598" width="395.52"><g><svg viewBox="0 0 395.52 64.59901619757598" height="64.59901619757598" width="395.52"><g id="SvgjsG1468"><svg viewBox="0 0 395.52 64.59901619757598" height="64.59901619757598" width="395.52" id="SvgjsSvg1467"><g><svg viewBox="0 0 395.52 64.59901619757598" height="64.59901619757598" width="395.52"><g transform="matrix(1,0,0,1,0,0)"><svg width="395.52" viewBox="-4.1 -39.95 260.58223198715194 43.400000000000006" height="64.59901619757598" data-palette-color="#ffffff"><path d="M12.1-8.2L17.55-27Q17.65-27.3 17.65-27.8L17.65-27.8Q17.65-28.6 17.23-29.1 16.8-29.6 15.9-30.2L15.9-30.2Q15.15-30.75 14.83-31.15 14.5-31.55 14.65-32.1L14.65-32.1Q14.8-32.8 15.4-33.05 16-33.3 17.3-33.3L17.3-33.3 31.5-33.3Q32.55-33.3 33.13-32.95 33.7-32.6 33.7-32.05L33.7-32.05Q33.7-31.8 33.55-31.4L33.55-31.4Q33.4-31.05 33.13-30.78 32.85-30.5 32.63-30.38 32.4-30.25 32.3-30.15L32.3-30.15Q31.5-29.7 31-29.15 30.5-28.6 30.15-27.45L30.15-27.45 25.25-10.15Q23.75-4.85 20.15-2.27 16.55 0.3 10.8 0.3L10.8 0.3Q6.95 0.3 4.28-0.83 1.6-1.95 0.25-3.85-1.1-5.75-1.1-8L-1.1-8Q-1.1-9.1-0.8-10.15L-0.8-10.15Q-0.15-12.4 1.43-13.55 3-14.7 4.95-14.7L4.95-14.7Q7.2-14.7 8.4-13.35 9.6-12 9.6-9.9L9.6-9.9Q9.6-8.85 9.3-7.8L9.3-7.8Q8.7-5.7 7.05-4.7L7.05-4.7Q7.85-4.2 8.9-4.2L8.9-4.2Q9.95-4.2 10.75-5.25 11.55-6.3 12.1-8.2L12.1-8.2ZM47.85-26.45Q54.65-26.45 57.87-23.7 61.1-20.95 61.1-16.5L61.1-16.5Q61.1-15 60.7-13.15L60.7-13.15Q59.75-9.05 57.15-5.98 54.55-2.9 50.77-1.23 47 0.45 42.6 0.45L42.6 0.45Q35.65 0.45 32.32-2.33 29-5.1 29-9.7L29-9.7Q29-11.25 29.4-13.15L29.4-13.15Q30.35-17.05 33.02-20.08 35.7-23.1 39.57-24.78 43.45-26.45 47.85-26.45L47.85-26.45ZM47.7-22Q46.65-22 45.47-20.13 44.3-18.25 42.7-13.05L42.7-13.05Q41.1-7.85 41.1-5.75L41.1-5.75Q41.1-4.65 41.45-4.28 41.8-3.9 42.4-3.9L42.4-3.9Q43.45-3.8 44.57-5.7 45.7-7.6 47.4-13.1L47.4-13.1Q48.95-17.95 48.95-20.15L48.95-20.15Q48.95-21.2 48.62-21.6 48.3-22 47.7-22L47.7-22ZM85.8-26.65Q89.5-26.65 91.72-24 93.94-21.35 93.94-17L93.94-17Q93.94-14.75 93.4-12.6L93.4-12.6Q91.8-6.15 87.92-2.85 84.05 0.45 79 0.45L79 0.45Q76.15 0.45 74.07-0.53 72-1.5 70.75-3.3L70.75-3.3 68.95-1.75Q67.89-0.85 66.89-0.43 65.89 0 64.59 0L64.59 0 62.4 0Q61.15 0 60.47-0.53 59.8-1.05 59.8-2.05L59.8-2.05Q59.8-2.5 59.95-3.1L59.95-3.1 68.3-30.25Q68.45-30.7 68.45-31L68.45-31Q68.45-31.85 67.39-32.6L67.39-32.6Q66.89-33.05 66.7-33.33 66.5-33.6 66.64-34.05L66.64-34.05Q67-35.2 69.82-36.08 72.65-36.95 75.75-36.95L75.75-36.95Q78.65-36.95 80.02-35.83 81.4-34.7 81.4-32.8L81.4-32.8Q81.4-31.75 81.05-30.7L81.05-30.7 78.95-23.9Q81.84-26.65 85.8-26.65L85.8-26.65ZM80.15-12.9Q81.15-16.3 81.15-18.4L81.15-18.4Q81.15-20.7 79.8-20.7L79.8-20.7Q78.59-20.7 77.55-19.45L77.55-19.45 74.3-8.85 74-7.9 74-7.9Q73.75-7.15 73.75-6.35L73.75-6.35Q73.75-4.6 75.4-4.6L75.4-4.6Q76.59-4.6 77.7-6.35 78.8-8.1 80.15-12.9L80.15-12.9ZM111.59-26.9Q115.74-26.9 118.77-26.15 121.79-25.4 123.42-24.05 125.04-22.7 125.04-21L125.04-21Q125.04-19.25 123.67-18.15 122.29-17.05 119.84-17.05L119.84-17.05Q117.34-17.05 115.62-18.3 113.89-19.55 113.89-21.45L113.89-21.45Q113.89-22.1 114.09-22.7L114.09-22.7Q113.19-22.95 112.49-22.95L112.49-22.95Q111.24-22.95 110.42-22.35 109.59-21.75 109.64-20.65L109.64-20.65Q109.64-19.35 110.94-18.45 112.24-17.55 115.14-16.2L115.14-16.2Q117.64-15.1 119.27-14.18 120.89-13.25 122.02-11.85 123.14-10.45 123.14-8.55L123.14-8.55Q123.14-8.15 122.94-7.05L122.94-7.05Q122.14-3.7 118.49-1.75 114.84 0.2 108.89 0.2L108.89 0.2Q102.19 0.2 98.27-1.6 94.34-3.4 94.34-6.55L94.34-6.55Q94.34-8.7 95.64-9.8 96.94-10.9 99.09-10.9L99.09-10.9Q101.59-10.9 103.37-9.35 105.14-7.8 105.14-5.4L105.14-5.4Q105.14-4.75 104.99-4.05L104.99-4.05Q106.19-3.75 107.29-3.75L107.29-3.75Q108.59-3.75 109.44-4.45 110.29-5.15 110.29-6.4L110.29-6.4Q110.24-7.55 109.14-8.38 108.04-9.2 105.64-10.35L105.64-10.35Q103.39-11.4 101.94-12.33 100.49-13.25 99.47-14.65 98.44-16.05 98.44-17.95L98.44-17.95Q98.44-22.05 101.87-24.48 105.29-26.9 111.59-26.9L111.59-26.9ZM178.49-33.3Q179.54-33.3 180.12-32.98 180.69-32.65 180.69-32.05L180.69-32.05Q180.69-31.8 180.54-31.4L180.54-31.4Q180.39-30.95 180.12-30.73 179.84-30.5 179.29-30.15L179.29-30.15Q178.49-29.7 178.02-29.15 177.54-28.6 177.19-27.45L177.19-27.45 171.09-5.95Q170.89-5.3 170.89-4.7L170.89-4.7Q170.89-4.15 171.07-3.78 171.24-3.4 171.54-2.9L171.54-2.9Q171.74-2.65 171.89-2.38 172.04-2.1 172.04-1.8L172.04-1.8Q172.04-1.7 171.94-1.3L171.94-1.3Q171.74-0.65 171.02-0.35 170.29-0.05 168.94-0.05L168.94-0.05 157.19-0.05Q156.14-0.05 155.57-0.4 154.99-0.75 154.99-1.35L154.99-1.35Q154.99-1.65 155.14-2L155.14-2Q155.29-2.35 155.57-2.63 155.84-2.9 156.07-3.03 156.29-3.15 156.39-3.25L156.39-3.25Q157.19-3.7 157.69-4.25 158.19-4.8 158.54-5.95L158.54-5.95 162.34-19.45 149.39-3.4Q147.79-1.45 146.82-0.73 145.84 0 144.59 0L144.59 0Q143.39 0 142.72-0.78 142.04-1.55 141.49-3.4L141.49-3.4 136.79-18.85 133.09-5.9Q132.89-5.25 132.89-4.65L132.89-4.65Q132.89-4.05 133.07-3.65 133.24-3.25 133.59-2.8L133.59-2.8Q134.04-2.15 134.04-1.75L134.04-1.75Q134.04-1.65 133.94-1.25L133.94-1.25Q133.74-0.55 133.04-0.28 132.34 0 130.94 0L130.94 0 126.79 0Q125.74 0 125.17-0.35 124.59-0.7 124.59-1.3L124.59-1.3Q124.59-1.6 124.74-1.95L124.74-1.95Q124.94-2.5 125.39-2.8 125.84-3.1 125.94-3.15L125.94-3.15Q126.74-3.65 127.24-4.17 127.74-4.7 128.09-5.9L128.09-5.9 134.19-27.5 133.39-30.15Q133.14-30.9 133.14-31.6L133.14-31.6Q133.14-32.5 133.72-32.9 134.29-33.3 135.49-33.3L135.49-33.3 143.24-33.3Q144.74-33.3 145.47-32.65 146.19-32 146.64-30.4L146.64-30.4 151.64-13.8 165.19-30.65Q166.49-32.25 167.74-32.77 168.99-33.3 171.04-33.3L171.04-33.3 178.49-33.3ZM193.49-26.7Q199.84-26.7 202.69-24.68 205.54-22.65 205.54-19.5L205.54-19.5Q205.54-18.55 205.34-17.75L205.34-17.75Q204.59-14.45 201.16-13.03 197.74-11.6 193.09-11.6L193.09-11.6Q190.74-11.6 188.69-11.9L188.69-11.9Q188.64-9.3 190.09-8.25 191.54-7.2 194.14-7.2L194.14-7.2Q195.34-7.2 196.44-7.48 197.54-7.75 199.24-8.3L199.24-8.3Q200.64-8.8 201.14-8.8L201.14-8.8Q201.69-8.8 201.69-8.15L201.69-8.15Q201.74-6.4 200.39-4.48 199.04-2.55 196.39-1.2 193.74 0.15 189.99 0.15L189.99 0.15Q184.44 0.15 180.89-2.65 177.34-5.45 177.34-10.8L177.34-10.8Q177.34-12.3 177.74-14.3L177.74-14.3Q178.99-20.45 183.21-23.58 187.44-26.7 193.49-26.7L193.49-26.7ZM189.04-14.9Q189.24-14.85 189.59-14.85L189.59-14.85Q191.69-14.85 192.79-16.8 193.89-18.75 193.84-21.15L193.84-21.15Q193.79-22.55 193.04-22.55L193.04-22.55Q192.49-22.55 191.74-21.68 190.99-20.8 190.26-19.05 189.54-17.3 189.04-14.9L189.04-14.9ZM220.49-36.95Q223.39-36.95 224.76-35.85 226.14-34.75 226.14-32.85L226.14-32.85Q226.14-31.75 225.79-30.7L225.79-30.7 217.94-5.2Q217.79-4.6 217.79-4.15L217.79-4.15Q217.79-3.5 218.04-3.13 218.29-2.75 218.74-2.4L218.74-2.4Q219.09-2.05 219.24-1.83 219.39-1.6 219.29-1.25L219.29-1.25Q219.04-0.6 218.29-0.3 217.54 0 215.99 0L215.99 0 204.59 0Q203.29 0 202.69-0.43 202.09-0.85 202.29-1.55L202.29-1.55Q202.49-2.15 203.34-2.6L203.34-2.6Q204.09-3 204.59-3.55 205.09-4.1 205.44-5.3L205.44-5.3 213.04-30.25Q213.19-30.7 213.19-31L213.19-31Q213.19-31.55 212.91-31.9 212.64-32.25 212.19-32.6L212.19-32.6Q211.69-33 211.46-33.3 211.24-33.6 211.39-34.1L211.39-34.1Q211.69-35.25 214.54-36.1 217.39-36.95 220.49-36.95L220.49-36.95ZM240.68-26.45Q246.43-26.45 249.88-24.33 253.33-22.2 253.33-17.85L253.33-17.85Q253.33-16.2 252.73-14.1L252.73-14.1 250.68-7.2Q250.63-7 250.63-6.7L250.63-6.7Q250.63-5.9 251.28-5.9L251.28-5.9Q251.88-5.9 252.31-6.43 252.73-6.95 252.88-6.95L252.88-6.95Q253.13-6.95 253.31-6.6 253.48-6.25 253.48-5.8L253.48-5.8Q253.53-4.45 252.46-3.05 251.38-1.65 249.58-0.75 247.78 0.15 245.63 0.15L245.63 0.15Q243.03 0.15 241.18-0.8 239.33-1.75 238.63-3.6L238.63-3.6Q237.13-1.8 235.08-0.83 233.03 0.15 230.68 0.15L230.68 0.15Q228.03 0.15 226.23-0.88 224.43-1.9 223.56-3.53 222.68-5.15 222.68-6.95L222.68-6.95Q222.68-7.75 222.83-8.5L222.83-8.5Q223.63-11.95 226.31-13.7 228.98-15.45 232.68-15.45L232.68-15.45Q236.83-15.45 240.83-14.15L240.83-14.15 242.08-17.45Q242.73-19.55 242.73-20.7L242.73-20.7Q242.68-21.9 241.93-22.5 241.18-23.1 239.63-23.1L239.63-23.1Q239.93-22.3 239.93-21.45L239.93-21.45Q239.93-19.6 238.53-18.25 237.13-16.9 234.53-16.9L234.53-16.9Q232.08-16.9 230.71-17.98 229.33-19.05 229.33-20.65L229.33-20.65Q229.33-23.15 232.13-24.8 234.93-26.45 240.68-26.45L240.68-26.45ZM237.88-11.3Q236.48-11.3 235.61-10.23 234.73-9.15 234.73-7.9L234.73-7.9Q234.73-7.1 235.11-6.6 235.48-6.1 236.18-6.1L236.18-6.1Q236.83-6.1 237.61-6.63 238.38-7.15 238.73-8.2L238.73-8.2 239.78-11.15Q238.93-11.3 237.88-11.3L237.88-11.3Z" opacity="1" transform="matrix(1,0,0,1,0,0)" fill="black" class="wordmark-text-0" id="SvgjsPath1466" stroke-width="5" stroke="black" stroke-linejoin="round"></path></svg></g></svg></g></svg></g></svg></g></svg></g></svg></g></svg></g></mask><g mask="url(#a876c5c5-2a24-4346-b67e-1eea05ba3551)"><g><path d="M166.86 184.664l40.096-138.314c0.49-1.471 0.736-3.433 0.736-5.886v0c0-3.924-1.03-7.112-3.09-9.564-2.109-2.452-5.371-5.15-9.785-8.093v0c-3.679-2.698-6.303-5.027-7.872-6.989-1.619-1.962-2.06-4.292-1.324-6.989v0c0.736-3.433 2.575-5.763 5.518-6.99 2.943-1.226 7.602-1.839 13.978-1.839v0h104.472c5.15 0 9.147 0.858 11.992 2.575 2.796 1.717 4.194 3.924 4.193 6.621v0c0 1.226-0.368 2.82-1.103 4.783v0c-0.736 1.717-1.766 3.237-3.09 4.561-1.373 1.373-2.6 2.354-3.679 2.943-1.128 0.638-1.937 1.202-2.428 1.692v0c-3.924 2.207-7.112 4.66-9.564 7.357-2.452 2.698-4.537 6.867-6.254 12.507v0l-36.05 127.279c-7.357 25.995-19.864 45.32-37.521 57.974-17.657 12.605-40.587 18.908-68.789 18.908v0c-18.883 0-34.873-2.771-47.969-8.314-13.145-5.493-23.028-12.9-29.649-22.218-6.621-9.319-9.932-19.496-9.932-30.532v0c0-5.395 0.736-10.668 2.207-15.818v0c3.188-11.036 8.657-19.374 16.406-25.014 7.7-5.64 16.333-8.461 25.897-8.461v0c11.036 0 19.496 3.311 25.383 9.932 5.886 6.621 8.829 15.082 8.828 25.382v0c0 5.15-0.736 10.3-2.207 15.45v0c-2.943 10.3-8.461 17.902-16.554 22.807v0c3.924 2.452 8.461 3.679 13.611 3.679v0c5.15 0 9.687-2.575 13.611-7.725 3.924-5.15 7.235-12.385 9.932-21.704z" fill="#000000" fill-rule="nonzero" stroke="none" stroke-width="1" stroke-linecap="butt" stroke-linejoin="miter" stroke-miterlimit="10" stroke-dasharray="" stroke-dashoffset="0" font-family="none" font-weight="none" font-size="none" text-anchor="none" style="mix-blend-mode: normal" data-fill-palette-color="tertiary"></path></g></g><g transform="matrix(1,0,0,1,0,91.30049190121201)"><svg viewBox="0 0 395.52 64.59901619757598" height="64.59901619757598" width="395.52"><g><svg viewBox="0 0 395.52 64.59901619757598" height="64.59901619757598" width="395.52"><g><svg viewBox="0 0 395.52 64.59901619757598" height="64.59901619757598" width="395.52"><g><svg viewBox="0 0 395.52 64.59901619757598" height="64.59901619757598" width="395.52"><g id="textblocktransform"><svg viewBox="0 0 395.52 64.59901619757598" height="64.59901619757598" width="395.52" id="textblock"><g><svg viewBox="0 0 395.52 64.59901619757598" height="64.59901619757598" width="395.52"><g transform="matrix(1,0,0,1,0,0)"><svg width="395.52" viewBox="-4.1 -39.95 260.58223198715194 43.400000000000006" height="64.59901619757598" data-palette-color="#ffffff"><path d="M12.1-8.2L17.55-27Q17.65-27.3 17.65-27.8L17.65-27.8Q17.65-28.6 17.23-29.1 16.8-29.6 15.9-30.2L15.9-30.2Q15.15-30.75 14.83-31.15 14.5-31.55 14.65-32.1L14.65-32.1Q14.8-32.8 15.4-33.05 16-33.3 17.3-33.3L17.3-33.3 31.5-33.3Q32.55-33.3 33.13-32.95 33.7-32.6 33.7-32.05L33.7-32.05Q33.7-31.8 33.55-31.4L33.55-31.4Q33.4-31.05 33.13-30.78 32.85-30.5 32.63-30.38 32.4-30.25 32.3-30.15L32.3-30.15Q31.5-29.7 31-29.15 30.5-28.6 30.15-27.45L30.15-27.45 25.25-10.15Q23.75-4.85 20.15-2.27 16.55 0.3 10.8 0.3L10.8 0.3Q6.95 0.3 4.28-0.83 1.6-1.95 0.25-3.85-1.1-5.75-1.1-8L-1.1-8Q-1.1-9.1-0.8-10.15L-0.8-10.15Q-0.15-12.4 1.43-13.55 3-14.7 4.95-14.7L4.95-14.7Q7.2-14.7 8.4-13.35 9.6-12 9.6-9.9L9.6-9.9Q9.6-8.85 9.3-7.8L9.3-7.8Q8.7-5.7 7.05-4.7L7.05-4.7Q7.85-4.2 8.9-4.2L8.9-4.2Q9.95-4.2 10.75-5.25 11.55-6.3 12.1-8.2L12.1-8.2ZM47.85-26.45Q54.65-26.45 57.87-23.7 61.1-20.95 61.1-16.5L61.1-16.5Q61.1-15 60.7-13.15L60.7-13.15Q59.75-9.05 57.15-5.98 54.55-2.9 50.77-1.23 47 0.45 42.6 0.45L42.6 0.45Q35.65 0.45 32.32-2.33 29-5.1 29-9.7L29-9.7Q29-11.25 29.4-13.15L29.4-13.15Q30.35-17.05 33.02-20.08 35.7-23.1 39.57-24.78 43.45-26.45 47.85-26.45L47.85-26.45ZM47.7-22Q46.65-22 45.47-20.13 44.3-18.25 42.7-13.05L42.7-13.05Q41.1-7.85 41.1-5.75L41.1-5.75Q41.1-4.65 41.45-4.28 41.8-3.9 42.4-3.9L42.4-3.9Q43.45-3.8 44.57-5.7 45.7-7.6 47.4-13.1L47.4-13.1Q48.95-17.95 48.95-20.15L48.95-20.15Q48.95-21.2 48.62-21.6 48.3-22 47.7-22L47.7-22ZM85.8-26.65Q89.5-26.65 91.72-24 93.94-21.35 93.94-17L93.94-17Q93.94-14.75 93.4-12.6L93.4-12.6Q91.8-6.15 87.92-2.85 84.05 0.45 79 0.45L79 0.45Q76.15 0.45 74.07-0.53 72-1.5 70.75-3.3L70.75-3.3 68.95-1.75Q67.89-0.85 66.89-0.43 65.89 0 64.59 0L64.59 0 62.4 0Q61.15 0 60.47-0.53 59.8-1.05 59.8-2.05L59.8-2.05Q59.8-2.5 59.95-3.1L59.95-3.1 68.3-30.25Q68.45-30.7 68.45-31L68.45-31Q68.45-31.85 67.39-32.6L67.39-32.6Q66.89-33.05 66.7-33.33 66.5-33.6 66.64-34.05L66.64-34.05Q67-35.2 69.82-36.08 72.65-36.95 75.75-36.95L75.75-36.95Q78.65-36.95 80.02-35.83 81.4-34.7 81.4-32.8L81.4-32.8Q81.4-31.75 81.05-30.7L81.05-30.7 78.95-23.9Q81.84-26.65 85.8-26.65L85.8-26.65ZM80.15-12.9Q81.15-16.3 81.15-18.4L81.15-18.4Q81.15-20.7 79.8-20.7L79.8-20.7Q78.59-20.7 77.55-19.45L77.55-19.45 74.3-8.85 74-7.9 74-7.9Q73.75-7.15 73.75-6.35L73.75-6.35Q73.75-4.6 75.4-4.6L75.4-4.6Q76.59-4.6 77.7-6.35 78.8-8.1 80.15-12.9L80.15-12.9ZM111.59-26.9Q115.74-26.9 118.77-26.15 121.79-25.4 123.42-24.05 125.04-22.7 125.04-21L125.04-21Q125.04-19.25 123.67-18.15 122.29-17.05 119.84-17.05L119.84-17.05Q117.34-17.05 115.62-18.3 113.89-19.55 113.89-21.45L113.89-21.45Q113.89-22.1 114.09-22.7L114.09-22.7Q113.19-22.95 112.49-22.95L112.49-22.95Q111.24-22.95 110.42-22.35 109.59-21.75 109.64-20.65L109.64-20.65Q109.64-19.35 110.94-18.45 112.24-17.55 115.14-16.2L115.14-16.2Q117.64-15.1 119.27-14.18 120.89-13.25 122.02-11.85 123.14-10.45 123.14-8.55L123.14-8.55Q123.14-8.15 122.94-7.05L122.94-7.05Q122.14-3.7 118.49-1.75 114.84 0.2 108.89 0.2L108.89 0.2Q102.19 0.2 98.27-1.6 94.34-3.4 94.34-6.55L94.34-6.55Q94.34-8.7 95.64-9.8 96.94-10.9 99.09-10.9L99.09-10.9Q101.59-10.9 103.37-9.35 105.14-7.8 105.14-5.4L105.14-5.4Q105.14-4.75 104.99-4.05L104.99-4.05Q106.19-3.75 107.29-3.75L107.29-3.75Q108.59-3.75 109.44-4.45 110.29-5.15 110.29-6.4L110.29-6.4Q110.24-7.55 109.14-8.38 108.04-9.2 105.64-10.35L105.64-10.35Q103.39-11.4 101.94-12.33 100.49-13.25 99.47-14.65 98.44-16.05 98.44-17.95L98.44-17.95Q98.44-22.05 101.87-24.48 105.29-26.9 111.59-26.9L111.59-26.9ZM178.49-33.3Q179.54-33.3 180.12-32.98 180.69-32.65 180.69-32.05L180.69-32.05Q180.69-31.8 180.54-31.4L180.54-31.4Q180.39-30.95 180.12-30.73 179.84-30.5 179.29-30.15L179.29-30.15Q178.49-29.7 178.02-29.15 177.54-28.6 177.19-27.45L177.19-27.45 171.09-5.95Q170.89-5.3 170.89-4.7L170.89-4.7Q170.89-4.15 171.07-3.78 171.24-3.4 171.54-2.9L171.54-2.9Q171.74-2.65 171.89-2.38 172.04-2.1 172.04-1.8L172.04-1.8Q172.04-1.7 171.94-1.3L171.94-1.3Q171.74-0.65 171.02-0.35 170.29-0.05 168.94-0.05L168.94-0.05 157.19-0.05Q156.14-0.05 155.57-0.4 154.99-0.75 154.99-1.35L154.99-1.35Q154.99-1.65 155.14-2L155.14-2Q155.29-2.35 155.57-2.63 155.84-2.9 156.07-3.03 156.29-3.15 156.39-3.25L156.39-3.25Q157.19-3.7 157.69-4.25 158.19-4.8 158.54-5.95L158.54-5.95 162.34-19.45 149.39-3.4Q147.79-1.45 146.82-0.73 145.84 0 144.59 0L144.59 0Q143.39 0 142.72-0.78 142.04-1.55 141.49-3.4L141.49-3.4 136.79-18.85 133.09-5.9Q132.89-5.25 132.89-4.65L132.89-4.65Q132.89-4.05 133.07-3.65 133.24-3.25 133.59-2.8L133.59-2.8Q134.04-2.15 134.04-1.75L134.04-1.75Q134.04-1.65 133.94-1.25L133.94-1.25Q133.74-0.55 133.04-0.28 132.34 0 130.94 0L130.94 0 126.79 0Q125.74 0 125.17-0.35 124.59-0.7 124.59-1.3L124.59-1.3Q124.59-1.6 124.74-1.95L124.74-1.95Q124.94-2.5 125.39-2.8 125.84-3.1 125.94-3.15L125.94-3.15Q126.74-3.65 127.24-4.17 127.74-4.7 128.09-5.9L128.09-5.9 134.19-27.5 133.39-30.15Q133.14-30.9 133.14-31.6L133.14-31.6Q133.14-32.5 133.72-32.9 134.29-33.3 135.49-33.3L135.49-33.3 143.24-33.3Q144.74-33.3 145.47-32.65 146.19-32 146.64-30.4L146.64-30.4 151.64-13.8 165.19-30.65Q166.49-32.25 167.74-32.77 168.99-33.3 171.04-33.3L171.04-33.3 178.49-33.3ZM193.49-26.7Q199.84-26.7 202.69-24.68 205.54-22.65 205.54-19.5L205.54-19.5Q205.54-18.55 205.34-17.75L205.34-17.75Q204.59-14.45 201.16-13.03 197.74-11.6 193.09-11.6L193.09-11.6Q190.74-11.6 188.69-11.9L188.69-11.9Q188.64-9.3 190.09-8.25 191.54-7.2 194.14-7.2L194.14-7.2Q195.34-7.2 196.44-7.48 197.54-7.75 199.24-8.3L199.24-8.3Q200.64-8.8 201.14-8.8L201.14-8.8Q201.69-8.8 201.69-8.15L201.69-8.15Q201.74-6.4 200.39-4.48 199.04-2.55 196.39-1.2 193.74 0.15 189.99 0.15L189.99 0.15Q184.44 0.15 180.89-2.65 177.34-5.45 177.34-10.8L177.34-10.8Q177.34-12.3 177.74-14.3L177.74-14.3Q178.99-20.45 183.21-23.58 187.44-26.7 193.49-26.7L193.49-26.7ZM189.04-14.9Q189.24-14.85 189.59-14.85L189.59-14.85Q191.69-14.85 192.79-16.8 193.89-18.75 193.84-21.15L193.84-21.15Q193.79-22.55 193.04-22.55L193.04-22.55Q192.49-22.55 191.74-21.68 190.99-20.8 190.26-19.05 189.54-17.3 189.04-14.9L189.04-14.9ZM220.49-36.95Q223.39-36.95 224.76-35.85 226.14-34.75 226.14-32.85L226.14-32.85Q226.14-31.75 225.79-30.7L225.79-30.7 217.94-5.2Q217.79-4.6 217.79-4.15L217.79-4.15Q217.79-3.5 218.04-3.13 218.29-2.75 218.74-2.4L218.74-2.4Q219.09-2.05 219.24-1.83 219.39-1.6 219.29-1.25L219.29-1.25Q219.04-0.6 218.29-0.3 217.54 0 215.99 0L215.99 0 204.59 0Q203.29 0 202.69-0.43 202.09-0.85 202.29-1.55L202.29-1.55Q202.49-2.15 203.34-2.6L203.34-2.6Q204.09-3 204.59-3.55 205.09-4.1 205.44-5.3L205.44-5.3 213.04-30.25Q213.19-30.7 213.19-31L213.19-31Q213.19-31.55 212.91-31.9 212.64-32.25 212.19-32.6L212.19-32.6Q211.69-33 211.46-33.3 211.24-33.6 211.39-34.1L211.39-34.1Q211.69-35.25 214.54-36.1 217.39-36.95 220.49-36.95L220.49-36.95ZM240.68-26.45Q246.43-26.45 249.88-24.33 253.33-22.2 253.33-17.85L253.33-17.85Q253.33-16.2 252.73-14.1L252.73-14.1 250.68-7.2Q250.63-7 250.63-6.7L250.63-6.7Q250.63-5.9 251.28-5.9L251.28-5.9Q251.88-5.9 252.31-6.43 252.73-6.95 252.88-6.95L252.88-6.95Q253.13-6.95 253.31-6.6 253.48-6.25 253.48-5.8L253.48-5.8Q253.53-4.45 252.46-3.05 251.38-1.65 249.58-0.75 247.78 0.15 245.63 0.15L245.63 0.15Q243.03 0.15 241.18-0.8 239.33-1.75 238.63-3.6L238.63-3.6Q237.13-1.8 235.08-0.83 233.03 0.15 230.68 0.15L230.68 0.15Q228.03 0.15 226.23-0.88 224.43-1.9 223.56-3.53 222.68-5.15 222.68-6.95L222.68-6.95Q222.68-7.75 222.83-8.5L222.83-8.5Q223.63-11.95 226.31-13.7 228.98-15.45 232.68-15.45L232.68-15.45Q236.83-15.45 240.83-14.15L240.83-14.15 242.08-17.45Q242.73-19.55 242.73-20.7L242.73-20.7Q242.68-21.9 241.93-22.5 241.18-23.1 239.63-23.1L239.63-23.1Q239.93-22.3 239.93-21.45L239.93-21.45Q239.93-19.6 238.53-18.25 237.13-16.9 234.53-16.9L234.53-16.9Q232.08-16.9 230.71-17.98 229.33-19.05 229.33-20.65L229.33-20.65Q229.33-23.15 232.13-24.8 234.93-26.45 240.68-26.45L240.68-26.45ZM237.88-11.3Q236.48-11.3 235.61-10.23 234.73-9.15 234.73-7.9L234.73-7.9Q234.73-7.1 235.11-6.6 235.48-6.1 236.18-6.1L236.18-6.1Q236.83-6.1 237.61-6.63 238.38-7.15 238.73-8.2L238.73-8.2 239.78-11.15Q238.93-11.3 237.88-11.3L237.88-11.3Z" opacity="1" transform="matrix(1,0,0,1,0,0)" fill="#000000" class="wordmark-text-0" data-fill-palette-color="primary" id="text-0"></path></svg></g></svg></g></svg></g></svg></g></svg></g></svg></g></svg></g></svg></g><defs></defs></svg><rect width="395.52" height="247.2" fill="none" stroke="none" visibility="hidden"></rect></g></svg></g></svg>